<?xml version="1.0" standalone="no"?>
<!DOCTYPE svg PUBLIC "-//W3C//DTD SVG 20010904//EN"
 "http://www.w3.org/TR/2001/REC-SVG-20010904/DTD/svg10.dtd">
<svg version="1.0" xmlns="http://www.w3.org/2000/svg"
 width="600.000000pt" height="600.000000pt" viewBox="0 0 600.000000 600.000000"
 preserveAspectRatio="xMidYMid meet">
<g transform="translate(0.000000,600.000000) scale(0.100000,-0.100000)"
fill="#000000" stroke="none">
<path d="M5001 5333 c-27 -5 -52 -20 -126 -74 -80 -58 -168 -90 -310 -113
-149 -24 -245 -71 -374 -186 -212 -187 -238 -204 -323 -203 -31 0 -63 5 -71
12 -8 6 -38 18 -66 27 -44 13 -61 13 -109 2 -31 -7 -75 -22 -97 -35 -22 -12
-62 -34 -90 -48 -27 -14 -57 -30 -65 -34 -80 -44 -169 -66 -229 -58 -38 5 -97
30 -190 82 -56 32 -106 32 -162 0 -66 -37 -85 -44 -106 -39 -21 6 -53 76 -53
117 0 59 -67 154 -141 199 -14 9 -64 22 -110 28 -54 8 -95 19 -114 33 -27 19
-41 20 -175 18 -80 -1 -212 -9 -295 -17 -82 -8 -199 -14 -260 -14 -60 0 -153
-5 -205 -11 -52 -5 -184 -13 -293 -18 -155 -6 -201 -10 -208 -22 -5 -8 -9
-717 -9 -1720 0 -1353 3 -1709 13 -1717 6 -5 48 -13 92 -17 44 -3 100 -12 125
-20 25 -7 72 -21 105 -30 99 -28 138 -48 178 -89 37 -39 37 -40 37 -122 0 -82
0 -83 32 -106 52 -37 122 -51 254 -52 105 -1 125 -4 143 -20 12 -11 21 -28 21
-38 0 -25 33 -89 56 -109 37 -32 90 -42 147 -28 28 7 57 16 63 21 6 4 33 15
60 23 50 15 104 10 179 -17 17 -6 61 -13 99 -16 89 -5 114 8 227 121 122 121
154 116 143 -25 -4 -43 -2 -84 5 -100 16 -42 86 -88 135 -88 52 -1 78 -22 101
-85 23 -65 50 -91 108 -107 38 -10 54 -10 84 1 72 26 104 62 138 159 12 34 34
66 60 90 62 57 75 95 75 216 0 95 3 110 31 173 17 37 40 78 51 90 19 21 23 21
49 7 16 -8 29 -21 29 -29 0 -48 54 -95 108 -95 39 0 94 32 125 73 29 40 46
124 40 200 -8 90 18 159 86 228 67 67 139 95 218 85 145 -20 153 -19 180 6 13
12 45 54 71 92 46 70 141 173 197 214 17 12 57 42 90 66 90 66 99 82 119 226
10 69 22 143 27 165 6 22 15 58 20 80 6 22 14 44 20 49 5 6 9 18 9 28 0 10 14
46 31 80 30 60 41 84 73 160 53 126 81 242 72 301 -13 81 -42 153 -78 191 -23
25 -23 55 0 63 36 13 79 74 92 131 12 56 16 195 5 212 -3 5 -10 96 -16 202 -5
106 -14 238 -19 293 -15 160 -12 565 5 680 8 55 15 127 15 160 0 58 -1 61 -32
78 -38 19 -82 27 -117 20z m71 -88 c9 -20 9 -34 -2 -63 -19 -49 -18 -872 0
-1002 6 -47 14 -176 17 -287 6 -230 5 -235 -75 -292 -55 -40 -63 -97 -18 -132
13 -10 34 -38 46 -61 29 -57 33 -215 6 -281 -42 -100 -67 -158 -105 -239 -17
-37 -31 -70 -31 -74 0 -3 -6 -20 -13 -37 -36 -84 -77 -270 -77 -347 0 -69 -20
-108 -82 -154 -26 -20 -49 -36 -52 -36 -26 0 -205 -184 -260 -268 -50 -75 -77
-93 -114 -73 -31 17 -183 13 -206 -4 -11 -8 -26 -15 -33 -15 -40 0 -183 -144
-183 -183 0 -7 -7 -22 -15 -33 -11 -14 -14 -50 -15 -142 0 -110 -2 -126 -21
-152 -46 -62 -115 -62 -102 1 7 36 -11 59 -46 59 -14 0 -39 9 -56 20 -42 28
-55 25 -94 -21 -84 -98 -109 -169 -120 -338 l-7 -113 -37 -34 c-46 -43 -87
-107 -87 -137 0 -12 -14 -39 -31 -60 -26 -32 -36 -37 -72 -37 -23 0 -47 4 -54
8 -6 4 -21 34 -34 67 -26 73 -58 101 -121 108 -26 3 -61 13 -77 22 l-31 16 0
102 c-1 93 -3 105 -25 132 -23 27 -30 30 -80 28 -46 -2 -62 -8 -110 -43 -30
-22 -55 -44 -55 -49 0 -19 -81 -88 -118 -100 -42 -14 -94 -7 -187 25 -78 27
-151 17 -247 -32 -33 -17 -112 -18 -125 -1 -6 6 -18 35 -28 62 -40 109 -80
129 -266 130 -113 1 -141 4 -163 19 -25 16 -27 21 -21 58 11 63 -11 124 -64
177 -43 43 -100 81 -123 81 -5 0 -24 6 -41 14 -56 23 -128 40 -272 63 l-50 8
-3 1650 c-1 1095 1 1652 8 1659 6 6 31 11 58 11 165 5 559 27 622 35 41 5 127
9 190 10 63 0 184 7 268 15 115 12 157 13 168 5 37 -31 92 -50 146 -50 68 0
127 -27 161 -74 23 -33 57 -119 57 -146 0 -9 9 -35 20 -58 15 -31 33 -48 63
-63 l42 -20 45 21 c25 11 59 29 75 40 42 26 62 24 130 -15 126 -71 143 -77
235 -72 104 4 161 26 365 137 77 43 153 52 203 26 81 -42 113 -50 155 -39 48
13 83 27 112 45 43 28 132 98 170 135 51 50 161 135 200 155 66 34 122 50 275
78 110 21 173 47 252 107 31 24 61 43 66 43 5 0 15 7 22 15 20 24 59 19 72
-10z"/>
<path d="M3684 4594 c6 -46 6 -46 -22 -41 -69 14 -67 14 -70 -25 l-3 -38 40 0
c51 0 59 -14 21 -36 -40 -24 -45 -42 -18 -65 34 -27 42 -24 66 27 25 50 31 50
47 2 14 -44 36 -55 63 -32 29 25 28 36 -8 62 -42 31 -38 42 15 42 43 0 45 1
45 30 0 33 -32 59 -53 42 -7 -5 -23 -13 -36 -17 -23 -7 -23 -6 -16 44 l7 51
-42 0 -43 0 7 -46z"/>
<path d="M3334 3890 c-24 -10 -73 -73 -100 -130 -4 -8 -13 -19 -21 -23 -7 -4
-13 -13 -13 -18 0 -6 -20 -37 -45 -69 -25 -32 -45 -61 -45 -64 0 -4 -40 -60
-90 -127 -49 -66 -90 -122 -90 -125 0 -3 -19 -31 -42 -62 -53 -71 -67 -92 -74
-114 -3 -9 -12 -19 -20 -22 -8 -3 -14 -10 -14 -17 0 -6 -12 -28 -27 -48 -16
-20 -33 -45 -40 -56 -46 -78 -95 -150 -143 -215 -81 -107 -96 -140 -66 -140 8
0 21 -6 28 -13 7 -7 20 -16 28 -20 8 -4 32 -18 53 -32 l37 -25 10 22 c6 13 19
37 30 53 11 17 24 40 30 53 5 12 14 22 20 22 5 0 10 6 10 14 0 8 3 16 8 18 9
4 52 65 52 74 0 3 14 23 30 44 17 21 30 42 30 48 0 6 3 12 8 14 8 4 52 65 52
73 0 3 34 51 75 105 41 54 75 103 75 109 0 5 3 11 8 13 10 5 52 66 52 77 0 5
3 11 8 13 8 3 34 40 97 134 58 87 64 97 72 114 16 37 45 69 58 64 8 -3 28 -31
46 -62 17 -32 49 -80 70 -109 22 -29 39 -55 39 -58 0 -4 19 -32 43 -63 24 -31
74 -104 113 -161 94 -141 102 -153 114 -176 23 -43 36 -62 63 -90 15 -17 27
-33 27 -37 0 -4 21 -37 47 -75 93 -134 133 -198 133 -210 0 -20 24 -15 64 12
20 14 41 25 46 25 6 0 10 4 10 10 0 5 11 12 25 16 31 8 31 22 2 65 -58 84
-115 167 -134 194 -32 45 -157 239 -162 250 -2 6 -23 35 -46 65 -23 30 -44 63
-48 73 -3 9 -11 17 -17 17 -5 0 -10 5 -10 10 0 10 -37 68 -51 80 -5 5 -64 91
-99 145 -83 128 -165 245 -172 245 -4 0 -8 6 -8 13 0 7 -15 30 -34 50 -34 38
-60 44 -102 27z"/>
<path d="M2465 3823 c-15 -27 -45 -71 -66 -100 -22 -29 -39 -54 -39 -57 0 -7
-86 -133 -121 -177 -16 -20 -29 -40 -29 -44 0 -4 -13 -24 -30 -45 -16 -21 -30
-41 -30 -45 0 -3 -20 -33 -45 -65 -25 -32 -45 -62 -45 -65 0 -4 -13 -24 -30
-45 -16 -21 -30 -41 -30 -44 0 -3 -20 -33 -45 -67 -25 -34 -45 -66 -45 -71 0
-6 -13 -27 -30 -48 -16 -21 -30 -41 -30 -45 0 -4 -13 -24 -30 -45 -16 -21 -30
-42 -30 -47 0 -5 -13 -23 -29 -40 -15 -17 -31 -38 -34 -47 -4 -9 -11 -16 -16
-16 -5 0 -13 -9 -16 -20 -5 -15 0 -26 17 -40 13 -11 27 -19 32 -20 4 0 25 -13
46 -30 41 -33 55 -36 64 -17 3 6 15 26 26 42 11 17 23 37 27 45 3 8 9 17 12
20 9 8 49 65 126 181 94 142 94 142 102 159 4 8 9 17 12 20 13 11 51 70 51 79
0 5 3 11 8 13 9 4 52 65 52 73 0 4 6 13 13 20 6 8 17 20 22 27 13 17 187 274
200 296 6 9 22 33 38 53 15 20 27 42 27 47 0 6 6 15 13 19 7 4 25 24 40 44 25
33 25 37 11 57 -8 12 -20 22 -25 22 -6 0 -31 16 -56 35 -25 19 -49 35 -53 35
-5 0 -20 -21 -35 -47z"/>
<path d="M2768 3573 c-16 -8 -28 -21 -28 -29 0 -7 -4 -14 -10 -14 -5 0 -10 -7
-10 -15 0 -8 7 -15 15 -15 8 0 15 5 15 10 0 6 6 10 14 10 11 0 46 50 46 67 0
6 -14 1 -42 -14z"/>
</g>
</svg>
